<svg xmlns="http://www.w3.org/2000/svg" width="39.222" height="49.999" viewBox="0 0 39.222 49.999">
  <g id="Group_687" data-name="Group 687" transform="translate(-2566.571 -111.413)">
    <path id="Path_1517" data-name="Path 1517" d="M2585.632,112.413c12.346,0,15.605,11.26,15.605,11.26l-1.877.2a13.992,13.992,0,0,0-13.383-8.494c-10.321,0-13.976,9.975-13.976,9.975h-1.284S2573.287,112.413,2585.632,112.413Zm7.027,48h-25.088a13.272,13.272,0,0,1,2.885-8.168,19.051,19.051,0,0,1,12.836-6.86h0c.286-.035.572-.067.862-.091v.091h3.247v-.12c6.566.416,12.17,3.676,15,8.291a13.029,13.029,0,0,1,1.979,6.857Zm12.133-27.554c-.1,3.161-4.05,2.568-4.05,2.568a10.39,10.39,0,0,0-.038-2.319c0,.083-.007.164-.013.248-.115,1.57-.26,2.857-.409,3.932a8.2,8.2,0,0,0,.955-.936s.884-.627,1.513.627c.236.473-.945,1.367-2.78,2.309-.5,2.925-.814,3.79.291,5.976,0,0-5.308.24-7.229-2.207a7.763,7.763,0,0,1-1.23.262,12.075,12.075,0,0,1-12.882-.527c-1.734,2.729-7.418,2.472-7.418,2.472,1.631-3.226.182-3.57-.431-11.909h0a12.071,12.071,0,0,1-.08-3.43,15.273,15.273,0,0,1,4.665-9.582l.031-.029a14.974,14.974,0,0,1,8.767-3.7,13.013,13.013,0,0,1,11.627,3.719l0-.016a15.91,15.91,0,0,1,4.113,7.334c-.182-1.692-.334-2.988-.334-2.988h2.47a3.519,3.519,0,0,1,2.469,2.765Z" transform="translate(0 0)" fill="none" stroke="#fab753" stroke-width="2"/>
    <path id="Path_1518" data-name="Path 1518" d="M2732.119,270.4c-2.51.057-3.08-.8-3.08-.8a1.522,1.522,0,0,1,.228-2.339,3.215,3.215,0,0,1,2.621-.591s2.456.134,2.969,1.275a30.62,30.62,0,0,0,5.693-1.111,13.924,13.924,0,0,0,1.385-8.268,24.574,24.574,0,0,1-11.573-8.68c-3.172,8.68-10.626,7.06-8.407,14.39a8.887,8.887,0,0,0,2.389,4.256,11.705,11.705,0,0,0,2.322,1.468,4.274,4.274,0,0,0,.479.143c-.109-.017-.214-.047-.322-.068a11.519,11.519,0,0,0,11.925-1.322,19.149,19.149,0,0,1-3.891.676S2734.628,270.348,2732.119,270.4Z" transform="translate(-145.909 -126.753)" fill="none" stroke="#fab753" stroke-width="2"/>
  </g>
</svg>
