<svg id="Iconly_Light_Camera" data-name="Iconly/Light/Camera" xmlns="http://www.w3.org/2000/svg" width="45" height="45" viewBox="0 0 45 45">
  <g id="Camera" transform="translate(5.156 7.032)">
    <path id="Stroke_1" data-name="Stroke 1" d="M27.915,6.3h0a1.8,1.8,0,0,1-1.631-1.033c-.538-1.14-1.222-2.6-1.628-3.39A3.141,3.141,0,0,0,21.746,0c-.022,0-8.782,0-8.8,0a3.143,3.143,0,0,0-2.91,1.875c-.4.793-1.087,2.25-1.626,3.39A1.806,1.806,0,0,1,6.774,6.3h0A6.773,6.773,0,0,0,0,13.072V24.2a6.774,6.774,0,0,0,6.774,6.773H27.915A6.773,6.773,0,0,0,34.688,24.2V13.072A6.772,6.772,0,0,0,27.915,6.3Z" fill="none" stroke="#fab753" stroke-linecap="round" stroke-linejoin="round" stroke-miterlimit="10" stroke-width="2"/>
    <path id="Stroke_3" data-name="Stroke 3" d="M0,5.966A5.96,5.96,0,1,0,5.966,0,5.981,5.981,0,0,0,0,5.966Z" transform="translate(11.384 12.004)" fill="none" stroke="#fab753" stroke-linecap="round" stroke-linejoin="round" stroke-miterlimit="10" stroke-width="2"/>
    <path id="Fill_5" data-name="Fill 5" d="M1.692,3.741a2.033,2.033,0,0,1-.56-.147,1.89,1.89,0,0,1-.6-.415A1.914,1.914,0,0,1,0,1.876a1.822,1.822,0,0,1,.154-.738A1.908,1.908,0,0,1,.6.5a2.145,2.145,0,0,1,.57-.365A1.917,1.917,0,0,1,3.2.535a1.8,1.8,0,0,1,.356.49l.043.11a1.826,1.826,0,0,1,.156.742A1.906,1.906,0,0,1,3.2,3.2a1.868,1.868,0,0,1-1.142.542l-.186.009Z" transform="translate(24.844 9.843)" fill="none" stroke="#fab753" stroke-width="2"/>
  </g>
</svg>
