<svg xmlns="http://www.w3.org/2000/svg" width="67.864" height="42.815" viewBox="0 0 67.864 42.815">
  <g id="Group_684" data-name="Group 684" transform="translate(-771.889 -2825.665)">
    <path id="Path_1509" data-name="Path 1509" d="M836.927,2871.744h-4.369a2.6,2.6,0,0,0-2.614,1.914c0,.01,0,.019-.007.029l-.1.432a.248.248,0,0,1-.164.174h-1.017a1.022,1.022,0,1,0,0,2.044h1.017a2.3,2.3,0,0,0,2.191-1.737l.007-.028.1-.433c.089-.324.471-.35.586-.35h4.369a.733.733,0,0,1,.74.725v2.14a1,1,0,0,1-1,.984h-6.149a1.048,1.048,0,0,0-.885.481,1,1,0,0,0-.052.99l.474.949a1.041,1.041,0,0,0,.134.2l2.918,3.448a6.361,6.361,0,0,1,1.417,4.111v3.28a8.976,8.976,0,0,1-4.7,7.937,1.011,1.011,0,0,0-.413,1.388,1.055,1.055,0,0,0,1.416.4,10.951,10.951,0,0,0,1.513-.989v3.835a1.8,1.8,0,0,1-1.844,1.993h-5.025a1.946,1.946,0,0,1-2.032-1.993v-.741h1.4a1.022,1.022,0,1,0,0-2.044h-37.7a1.022,1.022,0,1,0,0,2.044h1.123v.741a1.8,1.8,0,0,1-1.845,1.993h-5.025a2.065,2.065,0,0,1-2.169-1.993v-4.061a11.652,11.652,0,0,0,1.767,1.172,1.055,1.055,0,0,0,1.416-.4,1.011,1.011,0,0,0-.413-1.387,9.024,9.024,0,0,1-4.861-7.894v-3.28a6.377,6.377,0,0,1,1.57-4.045l3.044-3.518a1.01,1.01,0,0,0,.135-.2l.484-.937a1,1,0,0,0-.042-1,1.048,1.048,0,0,0-.889-.487h-5.962a1.473,1.473,0,0,1-1.486-1.456v-1.264a1.142,1.142,0,0,1,1.152-1.128H779.5a.572.572,0,0,1,.589.411l.007.026.1.344a2.326,2.326,0,0,0,2.188,1.767h.936a1.047,1.047,0,0,0,.93-.559l.571-1.1a14.874,14.874,0,0,1,13.061-7.738h27.309a1.022,1.022,0,1,0,0-2.044H797.874a16.962,16.962,0,0,0-14.905,8.828l-.01.018-.287.552h-.283a.366.366,0,0,1-.179-.23l-.007-.026-.1-.343a2.66,2.66,0,0,0-2.611-1.95h-4.369a3.21,3.21,0,0,0-3.238,3.173v1.264a3.54,3.54,0,0,0,3.572,3.5H779.5l-2.406,2.781-.015.018a8.372,8.372,0,0,0-2.041,5.34v3.28a10.752,10.752,0,0,0,2.091,6.336v6.238a4.107,4.107,0,0,0,4.255,4.037h5.025a3.854,3.854,0,0,0,3.931-4.037v-.741h31.011v.741a3.988,3.988,0,0,0,4.117,4.037h5.025a3.854,3.854,0,0,0,3.93-4.037v-5.961a11.072,11.072,0,0,0,2.185-6.613v-3.28a8.363,8.363,0,0,0-1.889-5.407l-2.312-2.732h4.258a3.063,3.063,0,0,0,3.09-3.028v-2.14A2.8,2.8,0,0,0,836.927,2871.744Z" transform="translate(0 -39.231)" fill="#fab753"/>
    <path id="Path_1510" data-name="Path 1510" d="M794.208,2926.415a.407.407,0,0,1-.465.179l-3.226-1.046a2.916,2.916,0,0,1-1.743-1.663.855.855,0,0,0-1.2-.473,1.087,1.087,0,0,0-.417,1.365,4.8,4.8,0,0,0,2.868,2.736l3.226,1.046a1.962,1.962,0,0,0,.607.1,2.166,2.166,0,0,0,1.8-1.021l.513-.784a2.775,2.775,0,0,0,.412-1.91,2.577,2.577,0,0,0-.915-1.669l-5.165-4.148a.834.834,0,0,0-1.255.244,1.113,1.113,0,0,0,.215,1.425l5.165,4.148a.5.5,0,0,1,.177.323.539.539,0,0,1-.08.369Z" transform="translate(-10.156 -75.396)" fill="#fab753"/>
    <path id="Path_1511" data-name="Path 1511" d="M908.032,2924.94l5.165-4.148a1.113,1.113,0,0,0,.215-1.425.834.834,0,0,0-1.255-.244l-5.165,4.148a2.579,2.579,0,0,0-.915,1.67,2.776,2.776,0,0,0,.412,1.909l.513.784a2.166,2.166,0,0,0,1.8,1.021,1.963,1.963,0,0,0,.607-.1l3.226-1.046a4.8,4.8,0,0,0,2.868-2.736,1.087,1.087,0,0,0-.417-1.365.856.856,0,0,0-1.2.473,2.915,2.915,0,0,1-1.743,1.663l-3.226,1.046a.406.406,0,0,1-.464-.179l-.513-.784a.537.537,0,0,1-.08-.369A.5.5,0,0,1,908.032,2924.94Z" transform="translate(-80.502 -75.396)" fill="#fab753"/>
    <path id="Path_1512" data-name="Path 1512" d="M850.694,2885.394a1.461,1.461,0,0,0-.3.076c-6.389,2.175-18.4,2.285-20.746,2.285-11.162,0-17.338-1.312-19.744-1.973a10.874,10.874,0,0,1,3.641-4.268.955.955,0,0,0,.2-1.435,1.223,1.223,0,0,0-1.595-.177,12.79,12.79,0,0,0-4.8,6.2.934.934,0,0,0,.12.853,1.124,1.124,0,0,0,.594.424l.016.006c1.649.566,8.08,2.414,21.565,2.414,13.407,0,19.884-1.85,21.551-2.417l.018-.006a1.022,1.022,0,0,0,.769-1.117A1.123,1.123,0,0,0,850.694,2885.394Z" transform="translate(-23.695 -49.129)" fill="#fab753"/>
    <path id="Path_1513" data-name="Path 1513" d="M817.171,2947.648l1.072.282.04.01.211.044a13.1,13.1,0,0,0,2.723.375H839.7a13.1,13.1,0,0,0,2.723-.375l.211-.044c.026-.006.053-.013.079-.021l1.055-.335a2.122,2.122,0,0,0,1.777-1.939,2.076,2.076,0,0,0-1.516-2.047.83.83,0,0,0-.118-.03l-.26-.046a19.661,19.661,0,0,0-6.232-.887H823.5a19.922,19.922,0,0,0-6.188.887l-.215.013a.84.84,0,0,0-.207.041,2.1,2.1,0,0,0-1.516,2.087A2.148,2.148,0,0,0,817.171,2947.648Zm.144-2.079.2-.012a.812.812,0,0,0,.207-.041,18.222,18.222,0,0,1,5.78-.837h13.917a18.024,18.024,0,0,1,5.78.822.753.753,0,0,0,.118.03l.171.03c-.027.008-.057.015-.089.022s-.053.013-.079.021l-1.052.334-.173.037a11.91,11.91,0,0,1-2.394.34h-18.48a11.908,11.908,0,0,1-2.394-.34l-.193-.041-1.071-.282-.04-.009a1,1,0,0,1-.215-.069Z" transform="translate(-24.4 -91.257)" fill="#fab753"/>
  </g>
</svg>
