<svg xmlns="http://www.w3.org/2000/svg" width="49.2" height="45.145" viewBox="0 0 49.2 45.145">
  <g id="Group_639" data-name="Group 639" transform="translate(-36.488 -52.066)">
    <g id="Group_633" data-name="Group 633" transform="translate(68.291 52.066)">
      <path id="Path_1468" data-name="Path 1468" d="M40.927,58.2a3.07,3.07,0,1,0-3.035-3.081A3.084,3.084,0,0,0,40.927,58.2Zm0-4.621a1.552,1.552,0,0,1,1.586,1.54,1.576,1.576,0,0,1-1.586,1.586,1.552,1.552,0,0,1-1.54-1.586A1.528,1.528,0,0,1,40.927,53.584Z" transform="translate(-37.892 -52.066)" fill="#fab753"/>
    </g>
    <g id="Group_634" data-name="Group 634" transform="translate(47.769 52.066)">
      <path id="Path_1469" data-name="Path 1469" d="M40.044,58.2a3.069,3.069,0,1,0-3.058-3.081A3.065,3.065,0,0,0,40.044,58.2Zm0-4.621a1.547,1.547,0,0,1,1.563,1.54,1.563,1.563,0,1,1-3.126,0A1.547,1.547,0,0,1,40.044,53.584Z" transform="translate(-36.986 -52.066)" fill="#fab753"/>
    </g>
    <g id="Group_635" data-name="Group 635" transform="translate(39.591 59.382)">
      <path id="Path_1470" data-name="Path 1470" d="M55.766,58.958H54.61V57.6a5.211,5.211,0,0,0-5.21-5.21H46.32a5.211,5.211,0,0,0-5.21,5.21v1.359H39.162a.746.746,0,0,0-.7.476L36.67,64.3l-.045.226v4.893a.748.748,0,0,0,1.5,0V65.3h4.847l-.045.43a3.409,3.409,0,0,0,6.818,0L49.7,65.3h5.323v4.123a.754.754,0,0,0,.748.748.735.735,0,0,0,.725-.748V59.705A.721.721,0,0,0,55.766,58.958ZM42.605,57.6a3.717,3.717,0,0,1,3.715-3.715H49.4A3.717,3.717,0,0,1,53.116,57.6v1.359H42.605ZM46.32,67.656a1.925,1.925,0,1,1,1.925-1.925A1.934,1.934,0,0,1,46.32,67.656Zm8.7-3.851H49.151a3.407,3.407,0,0,0-5.64,0H38.437l1.246-3.352H55.018Z" transform="translate(-36.625 -52.389)" fill="#fab753"/>
    </g>
    <g id="Group_636" data-name="Group 636" transform="translate(62.696 59.382)">
      <path id="Path_1471" data-name="Path 1471" d="M39.117,69.423V65.3h5.346l-.045.43a3.409,3.409,0,0,0,6.818,0l-.045-.43h4.848v4.123a.747.747,0,1,0,1.495,0V64.53l-.068-.226L55.7,59.434a.77.77,0,0,0-.7-.476H53.048V57.6a5.23,5.23,0,0,0-5.233-5.21H44.758a5.211,5.211,0,0,0-5.21,5.21v1.359H38.393a.74.74,0,0,0-.748.748v9.718a.754.754,0,0,0,.748.748A.735.735,0,0,0,39.117,69.423Zm8.7-1.767a1.925,1.925,0,1,1,1.925-1.925A1.938,1.938,0,0,1,47.816,67.656ZM41.02,57.6a3.722,3.722,0,0,1,3.738-3.715h3.058A3.722,3.722,0,0,1,51.553,57.6v1.359H41.02Zm-1.9,2.854H54.475L55.7,63.805H50.624a3.386,3.386,0,0,0-5.618,0H39.117Z" transform="translate(-37.645 -52.389)" fill="#fab753"/>
    </g>
    <g id="Group_637" data-name="Group 637" transform="translate(36.488 77.708)">
      <path id="Path_1472" data-name="Path 1472" d="M58.37,60.741H56.943V58.408a5.225,5.225,0,0,0-5.21-5.21h-4.87a5.225,5.225,0,0,0-5.21,5.21v2.333H39.3a.735.735,0,0,0-.7.5l-2.061,5.572-.045.249v4.87a.748.748,0,1,0,1.5,0v-4.1H57.622v4.1a.748.748,0,1,0,1.495,0V61.488A.754.754,0,0,0,58.37,60.741ZM43.148,58.408a3.717,3.717,0,0,1,3.715-3.715h4.87a3.717,3.717,0,0,1,3.715,3.715v2.333h-12.3Zm14.474,7.905H38.3l1.518-4.055h17.8Z" transform="translate(-36.488 -53.198)" fill="#fab753"/>
    </g>
    <g id="Group_638" data-name="Group 638" transform="translate(63.059 77.708)">
      <path id="Path_1473" data-name="Path 1473" d="M60.267,67.061l-.023-.249-2.061-5.572a.757.757,0,0,0-.7-.5H55.126V58.408a5.245,5.245,0,0,0-5.233-5.21H45.045a5.245,5.245,0,0,0-5.233,5.21v2.333H38.386a.735.735,0,0,0-.725.748V71.931a.755.755,0,0,0,.725.77.794.794,0,0,0,.77-.77v-4.1H58.8v4.1a.759.759,0,0,0,.747.77.774.774,0,0,0,.748-.77V67.083Zm-18.96-8.653a3.736,3.736,0,0,1,3.738-3.715h4.848a3.736,3.736,0,0,1,3.738,3.715v2.333H41.308Zm-2.152,7.905V62.259h17.8l1.518,4.055Z" transform="translate(-37.661 -53.198)" fill="#fab753"/>
    </g>
  </g>
</svg>
