<svg xmlns="http://www.w3.org/2000/svg" width="42.821" height="42.816" viewBox="0 0 42.821 42.816">
  <g id="Group_669" data-name="Group 669" transform="translate(-80.95 -57.027)">
    <g id="Group_667" data-name="Group 667" transform="translate(80.95 57.027)">
      <path id="Path_1496" data-name="Path 1496" d="M122.039,58.743h0a5.928,5.928,0,0,0-8.342,0L94.054,78.386a2.9,2.9,0,0,0-.394,3.589L81.571,94.045a2.191,2.191,0,0,0,0,3.057l2.13,2.11a2.142,2.142,0,0,0,3.037,0l12.07-12.05a3.052,3.052,0,0,0,1.538.414,2.786,2.786,0,0,0,2.051-.848l19.643-19.643A5.892,5.892,0,0,0,122.039,58.743ZM87.862,96.253,84.549,92.94,86.284,91.2,89.6,94.518ZM85.831,98.3a.869.869,0,0,1-1.223,0l-2.11-2.11a.869.869,0,0,1,0-1.223l1.124-1.124,3.333,3.333Zm4.694-4.694-3.333-3.333,7.317-7.317,1.676,1.657,1.657,1.676Zm30.608-27.433L101.49,85.821a1.561,1.561,0,0,1-2.268,0l-4.24-4.26a1.571,1.571,0,0,1,0-2.248L114.624,59.67a4.518,4.518,0,0,1,3.254-1.341,4.6,4.6,0,0,1,3.254,7.849Z" transform="translate(-80.95 -57.027)" fill="#fab753"/>
    </g>
    <g id="Group_668" data-name="Group 668" transform="translate(100.74 67.566)">
      <path id="Path_1497" data-name="Path 1497" d="M93.037,58.165a2.185,2.185,0,0,0-3.037.02L87.87,60.3h0l-.73.73L82.564,65.6a2.192,2.192,0,0,0,0,3.037l.809.809a2.192,2.192,0,0,0,3.037,0l7.415-7.435a2.143,2.143,0,0,0,0-3.037Zm-4.97,7.77-1.992-1.992L87.2,62.8l1.144-1.124,1.992,1.992Zm-2.583,2.583a.845.845,0,0,1-1.2,0l-.789-.809a.82.82,0,0,1-.256-.592.788.788,0,0,1,.256-.592l1.657-1.657,2.012,1.972Zm7.435-7.435-1.657,1.676L89.25,60.769l1.676-1.676a.788.788,0,0,1,.592-.256.9.9,0,0,1,.611.256l.789.809h0a.82.82,0,0,1,.256.592A.787.787,0,0,1,92.918,61.084Z" transform="translate(-81.953 -57.561)" fill="#fab753"/>
    </g>
  </g>
</svg>
