<svg xmlns="http://www.w3.org/2000/svg" width="49.2" height="41.847" viewBox="0 0 49.2 41.847">
  <g id="Group_595" data-name="Group 595" transform="translate(-98.597 -28.324)">
    <g id="Group_591" data-name="Group 591" transform="translate(116.713 28.324)">
      <path id="Path_1431" data-name="Path 1431" d="M99.4,34.141a3.064,3.064,0,0,0,1.02,2.266.772.772,0,0,0,.5.159.787.787,0,0,0,.566-.227.776.776,0,0,0-.068-1.065,1.452,1.452,0,0,1,0-2.266,2.927,2.927,0,0,0,1.042-2.243,2.961,2.961,0,0,0-1.042-2.243.708.708,0,0,0-1.042.068.725.725,0,0,0,.045,1.042,1.453,1.453,0,0,1,0,2.266A2.98,2.98,0,0,0,99.4,34.141Z" transform="translate(-99.396 -28.324)" fill="#fab753"/>
    </g>
    <g id="Group_592" data-name="Group 592" transform="translate(110.005 28.324)">
      <path id="Path_1432" data-name="Path 1432" d="M99.1,34.141a3.007,3.007,0,0,0,1.043,2.266.747.747,0,0,0,.974-1.133,1.452,1.452,0,0,1,0-2.266,2.927,2.927,0,0,0,1.042-2.243,2.961,2.961,0,0,0-1.042-2.243.709.709,0,0,0-1.042.068.726.726,0,0,0,.068,1.042,1.492,1.492,0,0,1,0,2.266A2.926,2.926,0,0,0,99.1,34.141Z" transform="translate(-99.1 -28.324)" fill="#fab753"/>
    </g>
    <g id="Group_593" data-name="Group 593" transform="translate(123.398 28.324)">
      <path id="Path_1433" data-name="Path 1433" d="M99.691,34.141a3.089,3.089,0,0,0,1.042,2.266.772.772,0,0,0,.5.159.7.7,0,0,0,.544-.227.774.774,0,0,0-.045-1.065,1.453,1.453,0,0,1,0-2.266,2.981,2.981,0,0,0,1.02-2.243,3.016,3.016,0,0,0-1.02-2.243.735.735,0,0,0-1.065.068.747.747,0,0,0,.068,1.042,1.452,1.452,0,0,1,0,2.266A3,3,0,0,0,99.691,34.141Z" transform="translate(-99.691 -28.324)" fill="#fab753"/>
    </g>
    <g id="Group_594" data-name="Group 594" transform="translate(98.597 37.709)">
      <path id="Path_1434" data-name="Path 1434" d="M146.058,38.223c.159-1.79-.022-6.685-6.186-9.313a2.081,2.081,0,0,0-2.13.295,2.109,2.109,0,0,0-.793,2.062,12.337,12.337,0,0,1-.34,5.121,3.263,3.263,0,0,0-2.13,1.949,9.257,9.257,0,0,1-1.042,1.9,2.7,2.7,0,0,0-2.7.793,16.972,16.972,0,0,0,.249-2.787v-5.62a.754.754,0,0,0-.748-.748H106.266a.77.77,0,0,0-.748.748v3.49a4.342,4.342,0,0,0-4.328-.068,4.824,4.824,0,0,0-2.447,3.218,5.417,5.417,0,0,0,.861,4.419c1.042,1.45,2.719,1.949,4.373,2.447,1.836.566,3.739,1.178,5.1,3.082l.045.045a16.623,16.623,0,0,0,3.15,3.376h-8.951a.754.754,0,0,0-.748.748c0,2.991,6.322,4.713,8.044,4.713H119.3a8.52,8.52,0,0,0,4.781,1.4c.272,0,.544,0,.748-.023a2.975,2.975,0,0,0,2.7,1.722h.317a16.169,16.169,0,0,0,5.665-1.813,2.71,2.71,0,0,0,2.085,1,2.993,2.993,0,0,0,.884-.136,17.143,17.143,0,0,0,10.356-10.378,2.714,2.714,0,0,0-.838-2.968,15.773,15.773,0,0,0,1.79-5.665A2.985,2.985,0,0,0,146.058,38.223ZM138.4,31.04a.732.732,0,0,1,.249-.657.66.66,0,0,1,.657-.091c5.076,2.153,5.416,5.937,5.3,7.546l-6.435-1.564A13.608,13.608,0,0,0,138.4,31.04ZM104.408,44.7c-1.541-.453-2.855-.861-3.6-1.9a3.822,3.822,0,0,1-.612-3.172,3.474,3.474,0,0,1,1.7-2.289,3.219,3.219,0,0,1,3.626.566v.34a18.959,18.959,0,0,0,1.677,7.5A24.724,24.724,0,0,0,104.408,44.7Zm2.606-6.458V33.374h22.479v4.872a17.1,17.1,0,0,1-.861,5.121,6.488,6.488,0,0,1-.68.5,2.773,2.773,0,0,0-1.11,2.969,9.137,9.137,0,0,1-1.881,1.042,3.288,3.288,0,0,0-1.972,2.13,11.947,11.947,0,0,1-5.121.34,2.18,2.18,0,0,0-2.085.816,2.3,2.3,0,0,0-.431,1.473h-.34C110.459,50.369,107.014,43.821,107.014,38.246Zm-2.606,15.862H115.92a11.852,11.852,0,0,0,1.677,2.515h-6.979C109.076,56.624,105.541,55.377,104.408,54.108Zm12.486-1.4a.6.6,0,0,1,.068-.634.676.676,0,0,1,.544-.272l.113.023a13.642,13.642,0,0,0,5.257-.249l1.541,6.458C122.831,58.119,119.047,57.779,116.894,52.7Zm10.786,7a1.444,1.444,0,0,1-1.586-1.11l-1.722-7.161a1.834,1.834,0,0,1,1.11-2.153,10.565,10.565,0,0,0,1.994-1.065l4.215,7.863,1.065,2.017A14.3,14.3,0,0,1,127.68,59.705Zm17.743-10.31A15.54,15.54,0,0,1,136,58.822a1.26,1.26,0,0,1-1.473-.566l-.113-.227h0l-2.334-4.373-3.693-6.911a1.247,1.247,0,0,1,.385-1.632,10.138,10.138,0,0,0,2.946-2.946,1.207,1.207,0,0,1,1.02-.521,1.419,1.419,0,0,1,.612.136l11.285,6.028h0l.227.136A1.2,1.2,0,0,1,145.423,49.395Zm.884-8.316a14.612,14.612,0,0,1-1.609,5.1l-9.9-5.3A9.756,9.756,0,0,0,135.86,38.9a1.85,1.85,0,0,1,2.175-1.11l7.161,1.7A1.5,1.5,0,0,1,146.307,41.079Z" transform="translate(-98.596 -28.738)" fill="#fab753"/>
    </g>
  </g>
</svg>
