<svg xmlns="http://www.w3.org/2000/svg" width="44.293" height="44.314" viewBox="0 0 44.293 44.314">
  <g id="Group_654" data-name="Group 654" transform="translate(-8.09 -18.541)">
    <path id="Path_1487" data-name="Path 1487" d="M52.383,29.579l-.041-.245-.02-.041-.082-.122-4.223-5.488V21.907a3.352,3.352,0,0,0-3.346-3.366H15.8a3.352,3.352,0,0,0-3.346,3.366v1.775L8.233,29.171l-.082.122-.02.041-.041.245v.02a4.128,4.128,0,0,0,4.244,4h.122V51.429A3.352,3.352,0,0,0,15.8,54.8H25.881l-.551,3.978a17.271,17.271,0,0,0-6.243,2.856.687.687,0,0,0,.408,1.224H40.978a.681.681,0,0,0,.632-.469.712.712,0,0,0-.224-.755,17.429,17.429,0,0,0-6.243-2.856L34.593,54.8H44.671a3.352,3.352,0,0,0,3.346-3.366V33.6h.122a4.141,4.141,0,0,0,4.244-4ZM41.06,23.927l2.428,5H37.938l-1.245-5Zm-5.753,0,1.224,5H30.9v-5Zm-5.733,5H23.922l1.245-5h4.407Zm-7.018,0h-5.57l2.428-5h4.366Zm-.245,1.326a2.972,2.972,0,0,1-5.631,0Zm7.161,0a2.972,2.972,0,0,1-5.631,0Zm7.161,0a2.972,2.972,0,0,1-5.631,0Zm7.161,0a2.972,2.972,0,0,1-5.631,0Zm1.183-1.326-2.428-5h3.978l3.836,5ZM15.8,19.888H44.671a2.007,2.007,0,0,1,2,2.02v.653H13.782v-.653A2.024,2.024,0,0,1,15.8,19.888Zm-1.857,4.04h3.978l-2.428,5H10.11ZM9.518,30.252h5.631a2.886,2.886,0,0,1-2.816,2.02A2.886,2.886,0,0,1,9.518,30.252ZM21.8,61.488a18.884,18.884,0,0,1,16.873,0Zm11.935-3.02a21.324,21.324,0,0,0-7.018,0l.53-3.672h5.978Zm10.936-5.019H15.8a2.024,2.024,0,0,1-2.02-2.02H46.671A2.007,2.007,0,0,1,44.671,53.449Zm-20.1-4.366a1.02,1.02,0,0,1,2.04,0,1.02,1.02,0,0,1-2.04,0Zm8.875,0a1.01,1.01,0,0,1,2.02,0,1.01,1.01,0,1,1-2.02,0Zm2.713-8.345H24.045l-.53-2.02H36.572Zm-.286,1.347-.428,2.02H24.922l-.53-2.02ZM46.671,50.1h-10.1a2.5,2.5,0,0,0,.245-1.02,2.384,2.384,0,0,0-.694-1.653l.53-2.53h0l1.408-6.712h0l.061-.306a2.46,2.46,0,0,1,2.367-1.918.684.684,0,0,0,.673-.694.675.675,0,0,0-.673-.653,3.753,3.753,0,0,0-3.611,2.775H22.637a.677.677,0,0,0-.53.265.627.627,0,0,0-.122.571l1.775,6.712a.625.625,0,0,0,.653.49H35.164L34.9,46.8a1.553,1.553,0,0,0-.428-.061,2.347,2.347,0,0,0-2.346,2.346,2.481,2.481,0,0,0,.224,1.02H27.717a2.5,2.5,0,0,0,.245-1.02,2.356,2.356,0,0,0-4.713,0,2.212,2.212,0,0,0,.245,1.02H13.782V33.373a4.2,4.2,0,0,0,2.142-1.632,4.361,4.361,0,0,0,7.141,0,4.381,4.381,0,0,0,7.161,0,4.381,4.381,0,0,0,7.161,0,4.4,4.4,0,0,0,7.161.02,4.4,4.4,0,0,0,2.122,1.612ZM48.14,32.272a2.912,2.912,0,0,1-2.836-2.02h5.651A2.886,2.886,0,0,1,48.14,32.272Z" transform="translate(0 0)" fill="#fab753"/>
  </g>
</svg>
