<svg xmlns="http://www.w3.org/2000/svg" width="23.039" height="54.519" viewBox="0 0 23.039 54.519">
  <g id="Group_685" data-name="Group 685" transform="translate(-392.526 -152.938)">
    <path id="Path_1515" data-name="Path 1515" d="M403.632,152.938a4.589,4.589,0,1,1-4.59,4.589A4.589,4.589,0,0,1,403.632,152.938Z" transform="translate(0.326 0)" fill="#fab753"/>
    <path id="Path_1516" data-name="Path 1516" d="M405.556,163.77a8.374,8.374,0,0,0-3.509.043c-7.63.894-10.107,9.724-9.407,16.458.3,2.911,4.893,2.941,4.585,0-.254-2.454-.145-6.156,1.159-8.789v9.6c0,.113.012.219.017.328,0,.053-.016.1-.016.15,0,7.615-.014,15.226-.328,22.835-.139,3.382,5.1,3.37,5.244,0,.245-5.964.308-11.93.322-17.9a6.306,6.306,0,0,0,.746,0c.015,5.967.076,11.934.319,17.9.14,3.37,5.384,3.382,5.243,0-.314-7.609-.324-15.22-.324-22.835a2.784,2.784,0,0,0-.08-.658c-.007-3.307-.133-6.616-.094-9.92,1.56,2.644,1.7,6.677,1.433,9.291-.308,2.939,4.282,2.911,4.585,0C416.168,173.4,413.571,164.336,405.556,163.77Z" transform="translate(0 0.534)" fill="#fab753"/>
  </g>
</svg>

