<svg xmlns="http://www.w3.org/2000/svg" width="48.506" height="50" viewBox="0 0 48.506 50">
  <g id="Group_683" data-name="Group 683" transform="translate(-1092.879 -960)">
    <g id="Group_672" data-name="Group 672" transform="translate(1092.879 993.048)">
      <g id="Group_670" data-name="Group 670" transform="translate(0 0)">
        <path id="Path_1498" data-name="Path 1498" d="M112.639,81.277a2.03,2.03,0,0,0-1.656-.365,2.915,2.915,0,0,0-.633-1.7,2.742,2.742,0,0,0-2.313-1.023,12.443,12.443,0,0,0-3.823,1.071,37.713,37.713,0,0,1-5.771,1.85,3.669,3.669,0,0,0-2.411-.9c-6.648.1-7.767-.56-9.082-1.339-1.485-.9-3.165-1.9-11.615-2.094a3.269,3.269,0,0,0-2.338.8,1.539,1.539,0,0,0-1.388-.8H66.692a1.611,1.611,0,0,0-1.631,1.607V90.456a1.632,1.632,0,0,0,1.631,1.632h4.919a1.584,1.584,0,0,0,1.363-.779,4.094,4.094,0,0,0,1.291.682,54.47,54.47,0,0,0,13.416,1.729c7.427,0,16.29-1.68,24.057-7.792a4.208,4.208,0,0,0,1.826-2.7A2.36,2.36,0,0,0,112.639,81.277Zm-41.028,9.18H66.692V78.379h4.919ZM104.8,80.789a10.819,10.819,0,0,1,3.263-.974,1.262,1.262,0,0,1,1.047.414,1.792,1.792,0,0,1,.292,1.12c-.463.17-1,.414-1.558.633a50.467,50.467,0,0,1-8.449,2.9l.1-.56a4.49,4.49,0,0,0-.17-1.753A41.6,41.6,0,0,0,104.8,80.789Zm5.99,3.823c-13.2,10.348-29.633,7.5-36.086,5.8a2,2,0,0,1-1.485-1.924l.049-8.133a1.953,1.953,0,0,1,1.972-1.972h.049c8.011.219,9.521,1.1,10.836,1.875,1.509.9,2.824,1.68,9.959,1.583a2.065,2.065,0,0,1,1.315.511,2.414,2.414,0,0,1,.487,1.85c-.024.195-.073.8-1.29,1.291l-.049.024h0c-1.363.511-4.334.95-10.835.1a.8.8,0,1,0-.219,1.583,47.391,47.391,0,0,0,6.623.536,13.922,13.922,0,0,0,4.919-.682h0a53.441,53.441,0,0,0,11.444-3.579c1.315-.536,2.824-1.193,3.117-.95.365.316.341.511.341.609C111.909,83.663,111.179,84.345,110.789,84.612Z" transform="translate(-65.061 -76.766)" fill="#fab753"/>
      </g>
      <g id="Group_671" data-name="Group 671" transform="translate(3.263 10.354)">
        <path id="Path_1499" data-name="Path 1499" d="M66.023,78.823a.816.816,0,0,0,0-1.631.816.816,0,1,0,0,1.631Z" transform="translate(-65.195 -77.192)" fill="#fab753"/>
      </g>
    </g>
    <g id="Group_682" data-name="Group 682" transform="translate(1099.459 960)">
      <g id="Group_673" data-name="Group 673" transform="translate(0 0)">
        <path id="Path_1500" data-name="Path 1500" d="M87.875,102.371,73.13,87.61a.678.678,0,0,0-.391-.146H70.461V85.169a.516.516,0,0,0-.147-.374l-4.41-4.41a.537.537,0,0,0-.911.391.5.5,0,0,0,.163.374,1.219,1.219,0,0,1,0,1.693,1.194,1.194,0,0,1-1.709,0,.572.572,0,0,0-.765,0,.6.6,0,0,0-.163.391.53.53,0,0,0,.163.374,1.2,1.2,0,1,1-1.692,1.709.54.54,0,0,0-.765,0,.516.516,0,0,0-.146.374.543.543,0,0,0,.146.374,1.21,1.21,0,0,1,.358.846,1.155,1.155,0,0,1-.358.846,1.136,1.136,0,0,1-.846.374,1.162,1.162,0,0,1-.846-.374h0a.573.573,0,0,0-.765,0,.54.54,0,0,0,0,.765h0a1.208,1.208,0,0,1,0,1.709,1.189,1.189,0,0,1-1.692,0,.54.54,0,0,0-.765,0,.53.53,0,0,0-.163.374.493.493,0,0,0,.163.358,1.278,1.278,0,0,1,.358.862,1.248,1.248,0,0,1-.358.863,1.218,1.218,0,0,1-1.692,0,.513.513,0,0,0-.765,0,.556.556,0,0,0-.163.358.569.569,0,0,0,.163.391l4.41,4.394a.472.472,0,0,0,.374.163h2.278v2.295a.53.53,0,0,0,.163.374l14.761,14.744a.512.512,0,0,0,.749,0,.5.5,0,0,0,0-.732,1.208,1.208,0,0,1,1.709-1.709.521.521,0,0,0,.749,0,.548.548,0,0,0,.163-.374.5.5,0,0,0-.163-.39,1.189,1.189,0,0,1,0-1.693,1.208,1.208,0,0,1,1.709,0,.552.552,0,0,0,.749,0,.529.529,0,0,0,.163-.391.494.494,0,0,0-.163-.374,1.167,1.167,0,0,1-.342-.846,1.232,1.232,0,0,1,.342-.863,1.239,1.239,0,0,1,1.709,0h0a.5.5,0,0,0,.749,0,.521.521,0,0,0,0-.749v-.016a1.169,1.169,0,0,1,0-1.676,1.208,1.208,0,0,1,1.709,0,.521.521,0,0,0,.749,0,.555.555,0,0,0,.163-.391.52.52,0,0,0-.163-.374,1.189,1.189,0,0,1,0-1.693,1.208,1.208,0,0,1,1.709,0,.551.551,0,0,0,.749,0,.529.529,0,0,0,.163-.39A.494.494,0,0,0,87.875,102.371Zm-3.206,0A2.256,2.256,0,0,0,84,104.177a2.228,2.228,0,0,0-1.79.651,2.3,2.3,0,0,0-.667,1.79h-.179a2.264,2.264,0,0,0-1.611.667,2.226,2.226,0,0,0-.651,1.806,2.243,2.243,0,0,0-1.806.651,2.19,2.19,0,0,0-.651,1.806,2.242,2.242,0,0,0-1.806.651,2.429,2.429,0,0,0-.618,1.106L60.99,100.06v-2.6a.528.528,0,0,0-.537-.521h-2.6l-2.864-2.881a2.442,2.442,0,0,0,1.09-.618,2.284,2.284,0,0,0,.651-1.79,2.289,2.289,0,0,0,1.806-.684,2.243,2.243,0,0,0,.651-1.79l.2.016a2.322,2.322,0,0,0,1.611-.667,2.228,2.228,0,0,0,.651-1.79,2.353,2.353,0,0,0,1.806-.667,2.322,2.322,0,0,0,.667-1.611l-.016-.2a2.19,2.19,0,0,0,1.806-.651,2.344,2.344,0,0,0,.6-1.09l2.88,2.881V88a.5.5,0,0,0,.163.374l.1.065.065.049h.016l.2.049h2.6l13.231,13.231A2.144,2.144,0,0,0,84.669,102.371Z" transform="translate(-52.69 -80.238)" fill="#fab753"/>
      </g>
      <g id="Group_674" data-name="Group 674" transform="translate(13.544 10.375)">
        <path id="Path_1501" data-name="Path 1501" d="M53.681,81.046a.521.521,0,0,0,0,.749.458.458,0,0,0,.374.147.513.513,0,0,0,.391-.147.552.552,0,0,0,0-.749A.513.513,0,0,0,53.681,81.046Z" transform="translate(-53.522 -80.875)" fill="#fab753"/>
      </g>
      <g id="Group_675" data-name="Group 675" transform="translate(10.387 13.528)">
        <path id="Path_1502" data-name="Path 1502" d="M53.487,81.228a.54.54,0,0,0,0,.765.56.56,0,0,0,.374.163.53.53,0,0,0,.374-.163.54.54,0,0,0,0-.765A.521.521,0,0,0,53.487,81.228Z" transform="translate(-53.328 -81.069)" fill="#fab753"/>
      </g>
      <g id="Group_676" data-name="Group 676" transform="translate(8.808 15.111)">
        <path id="Path_1503" data-name="Path 1503" d="M53.39,81.337a.521.521,0,0,0,0,.749.531.531,0,0,0,.765,0,.551.551,0,0,0,0-.749A.513.513,0,0,0,53.39,81.337Z" transform="translate(-53.231 -81.166)" fill="#fab753"/>
      </g>
      <g id="Group_677" data-name="Group 677" transform="translate(11.966 11.966)">
        <path id="Path_1504" data-name="Path 1504" d="M53.584,81.132a.5.5,0,0,0,0,.732.494.494,0,0,0,.374.163.471.471,0,0,0,.374-.163.478.478,0,0,0,0-.732A.521.521,0,0,0,53.584,81.132Z" transform="translate(-53.425 -80.973)" fill="#fab753"/>
      </g>
      <g id="Group_678" data-name="Group 678" transform="translate(15.123 8.792)">
        <path id="Path_1505" data-name="Path 1505" d="M54.526,80.937a.521.521,0,0,0-.748,0,.54.54,0,0,0,0,.765.56.56,0,0,0,.374.163.529.529,0,0,0,.374-.163A.54.54,0,0,0,54.526,80.937Z" transform="translate(-53.619 -80.778)" fill="#fab753"/>
      </g>
      <g id="Group_679" data-name="Group 679" transform="translate(16.148 16.144)">
        <path id="Path_1506" data-name="Path 1506" d="M53.841,90.409a.519.519,0,0,0,.374.163.529.529,0,0,0,.391-.163l8.267-8.267a.54.54,0,0,0,0-.765.551.551,0,0,0-.749,0L53.841,89.66A.521.521,0,0,0,53.841,90.409Z" transform="translate(-53.682 -81.23)" fill="#fab753"/>
      </g>
      <g id="Group_680" data-name="Group 680" transform="translate(21.315 21.335)">
        <path id="Path_1507" data-name="Path 1507" d="M54.622,82.135a2.073,2.073,0,0,0,0,2.962,2.028,2.028,0,0,0,1.465.6,2.093,2.093,0,0,0,1.481-.6,2.121,2.121,0,0,0,.6-1.481,2.093,2.093,0,0,0-.6-1.481A2.144,2.144,0,0,0,54.622,82.135Zm2.181,2.2a1.054,1.054,0,0,1-1.432,0,1.022,1.022,0,0,1,0-1.432,1,1,0,0,1,.716-.309.971.971,0,0,1,.716.309.982.982,0,0,1,.293.716A1.01,1.01,0,0,1,56.8,84.332Z" transform="translate(-54 -81.549)" fill="#fab753"/>
      </g>
      <g id="Group_681" data-name="Group 681" transform="translate(16.16 16.181)">
        <path id="Path_1508" data-name="Path 1508" d="M54.285,81.83a1.99,1.99,0,0,0-.6,1.448,2.083,2.083,0,1,0,4.166,0,1.991,1.991,0,0,0-.6-1.448A2.133,2.133,0,0,0,54.285,81.83Zm2.2,2.181a1.021,1.021,0,0,1-1.432,0,1,1,0,0,1,0-1.448,1.022,1.022,0,0,1,1.432,0,1.01,1.01,0,0,1,.293.716A1.02,1.02,0,0,1,56.482,84.011Z" transform="translate(-53.683 -81.232)" fill="#fab753"/>
      </g>
    </g>
  </g>
</svg>
