<svg xmlns="http://www.w3.org/2000/svg" width="43.26" height="49.291" viewBox="0 0 43.26 49.291">
  <path id="Path_1514" data-name="Path 1514" d="M3755.611,3345.693a1.444,1.444,0,0,0-1.19-1.313c-8.411-1.473-19.513-8.036-19.624-8.1a1.444,1.444,0,0,0-1.476,0c-.111.065-11.229,6.627-19.651,8.1a1.444,1.444,0,0,0-1.187,1.28,42.955,42.955,0,0,0,1.652,14.541,41.854,41.854,0,0,0,19.184,24.96,1.443,1.443,0,0,0,1.5-.012,43.169,43.169,0,0,0,18.921-24.985A44.506,44.506,0,0,0,3755.611,3345.693Zm-38.667,13.831A42.758,42.758,0,0,1,3715.3,3347c6.468-1.4,13.81-5.1,17.359-7.039v41.354A38.294,38.294,0,0,1,3716.945,3359.524Zm33.993-.063a39.625,39.625,0,0,1-15.39,21.743v-41.188c3.574,1.945,10.813,5.591,17.217,6.98A44.547,44.547,0,0,1,3750.937,3359.461Z" transform="translate(-3712.396 -3336.075)" fill="#fab753"/>
</svg>
