<svg xmlns="http://www.w3.org/2000/svg" width="41.987" height="53.306" viewBox="0 0 41.987 53.306">
  <g id="Group_617" data-name="Group 617" transform="translate(-81.541 -23.7)">
    <g id="Group_596" data-name="Group 596" transform="translate(82.499 43.417)">
      <path id="Path_1435" data-name="Path 1435" d="M82.366,26.1h4.15a.8.8,0,0,0,.81-.786.817.817,0,0,0-.81-.81h-4.15a.8.8,0,0,0-.786.81A.776.776,0,0,0,82.366,26.1Z" transform="translate(-81.58 -24.503)" fill="#fab753"/>
    </g>
    <g id="Group_597" data-name="Group 597" transform="translate(117.758 43.417)">
      <path id="Path_1436" data-name="Path 1436" d="M87.976,24.5h-4.15a.817.817,0,0,0-.81.81.8.8,0,0,0,.81.786h4.15a.8.8,0,0,0,.81-.786A.817.817,0,0,0,87.976,24.5Z" transform="translate(-83.016 -24.503)" fill="#fab753"/>
    </g>
    <g id="Group_598" data-name="Group 598" transform="translate(102.191 23.7)">
      <path id="Path_1437" data-name="Path 1437" d="M83.192,29.47a.817.817,0,0,0,.81-.81V24.51a.81.81,0,1,0-1.62,0v4.15A.817.817,0,0,0,83.192,29.47Z" transform="translate(-82.382 -23.7)" fill="#fab753"/>
    </g>
    <g id="Group_599" data-name="Group 599" transform="translate(115.665 33.565)">
      <path id="Path_1438" data-name="Path 1438" d="M83.747,27.79a.742.742,0,0,0,.393-.123l3.609-2.063a.8.8,0,0,0,.295-1.1.831.831,0,0,0-1.1-.295l-3.61,2.062a.819.819,0,0,0,.417,1.522Z" transform="translate(-82.931 -24.102)" fill="#fab753"/>
    </g>
    <g id="Group_600" data-name="Group 600" transform="translate(92.334 26.346)">
      <path id="Path_1439" data-name="Path 1439" d="M84.177,28.626a.839.839,0,0,0,.688.417.906.906,0,0,0,.417-.123.832.832,0,0,0,.295-1.1l-2.087-3.609a.825.825,0,0,0-1.1-.295.809.809,0,0,0-.295,1.1Z" transform="translate(-81.981 -23.808)" fill="#fab753"/>
    </g>
    <g id="Group_601" data-name="Group 601" transform="translate(85.132 33.565)">
      <path id="Path_1440" data-name="Path 1440" d="M82.1,25.605l3.585,2.063a.816.816,0,0,0,.393.123.819.819,0,0,0,.418-1.522l-3.61-2.062a.8.8,0,1,0-.786,1.4Z" transform="translate(-81.687 -24.102)" fill="#fab753"/>
    </g>
    <g id="Group_602" data-name="Group 602" transform="translate(115.665 51.179)">
      <path id="Path_1441" data-name="Path 1441" d="M87.749,27,84.14,24.939a.789.789,0,0,0-1.105.295.825.825,0,0,0,.295,1.1l3.61,2.087a.719.719,0,0,0,.393.1.774.774,0,0,0,.712-.393A.838.838,0,0,0,87.749,27Z" transform="translate(-82.931 -24.819)" fill="#fab753"/>
    </g>
    <g id="Group_603" data-name="Group 603" transform="translate(109.976 26.346)">
      <path id="Path_1442" data-name="Path 1442" d="M83.09,28.921a1,1,0,0,0,.418.123.84.84,0,0,0,.688-.417l2.087-3.609a.809.809,0,0,0-.295-1.1.825.825,0,0,0-1.1.295L82.82,27.816A.8.8,0,0,0,83.09,28.921Z" transform="translate(-82.699 -23.808)" fill="#fab753"/>
    </g>
    <g id="Group_604" data-name="Group 604" transform="translate(81.541 31.655)">
      <path id="Path_1443" data-name="Path 1443" d="M113.535,48.9l.025-.393a7.815,7.815,0,0,0-1.007-3.83,12.384,12.384,0,0,0,3.02-8.078,12.572,12.572,0,0,0-25.143,0,10.85,10.85,0,0,0,.172,1.817,7.057,7.057,0,0,0-2.824,5.647v.221a6.078,6.078,0,1,0-.147,12.154h.246l-.049.614c0,.27.025.54.049.786a.818.818,0,0,0,1.62-.221l-.049-.565a3.84,3.84,0,0,1,3.143-3.781.775.775,0,0,0,.565-.467.786.786,0,0,0-.025-.737,3.128,3.128,0,0,1,2.726-4.69,3.092,3.092,0,0,1,2.136.81.8.8,0,0,0,.835.172.893.893,0,0,0,.515-.663,6.325,6.325,0,0,1,12.6.81,5.934,5.934,0,0,1-.123,1.154.816.816,0,0,0,.982.958A5.2,5.2,0,1,1,113.854,60.9h-1.007a.8.8,0,0,0-.786.835.776.776,0,0,0,.786.786h1.007a6.818,6.818,0,1,0-.319-13.627ZM97.992,46.27a4.573,4.573,0,0,0-2.136-.516,4.768,4.768,0,0,0-4.739,4.788,5.342,5.342,0,0,0,.2,1.4,5.58,5.58,0,0,0-3,2.848H87.63a4.444,4.444,0,1,1,0-8.889,4.1,4.1,0,0,1,.908.1.829.829,0,0,0,.958-.933,4.989,4.989,0,0,1-.1-1.007A5.423,5.423,0,0,1,100.1,42.808,7.743,7.743,0,0,0,97.992,46.27Zm7.612-5.721a7.987,7.987,0,0,0-4.125,1.179,7.029,7.029,0,0,0-6.629-4.714,7.715,7.715,0,0,0-2.75.516c-.025-.295-.049-.614-.049-.933a10.951,10.951,0,1,1,19.545,6.7A7.992,7.992,0,0,0,105.6,40.549Z" transform="translate(-81.541 -24.024)" fill="#fab753"/>
    </g>
    <g id="Group_605" data-name="Group 605" transform="translate(86.501 69.131)">
      <path id="Path_1444" data-name="Path 1444" d="M83.683,25.79l-1.719,1.694a.864.864,0,0,0,0,1.154.8.8,0,0,0,.589.246.785.785,0,0,0,.565-.246l1.719-1.719a.786.786,0,0,0,0-1.129A.815.815,0,0,0,83.683,25.79Z" transform="translate(-81.743 -25.55)" fill="#fab753"/>
    </g>
    <g id="Group_606" data-name="Group 606" transform="translate(81.934 73.679)">
      <path id="Path_1445" data-name="Path 1445" d="M83.5,25.993l-1.719,1.694a.863.863,0,0,0,0,1.154.927.927,0,0,0,.589.221.865.865,0,0,0,.565-.221l1.719-1.719a.786.786,0,0,0,0-1.129A.775.775,0,0,0,83.5,25.993Z" transform="translate(-81.557 -25.736)" fill="#fab753"/>
    </g>
    <g id="Group_607" data-name="Group 607" transform="translate(91.074 64.539)">
      <path id="Path_1446" data-name="Path 1446" d="M83.3,28.475l1.719-1.719A.816.816,0,1,0,83.863,25.6l-1.694,1.719a.815.815,0,0,0,0,1.154.772.772,0,0,0,1.129,0Z" transform="translate(-81.929 -25.363)" fill="#fab753"/>
    </g>
    <g id="Group_608" data-name="Group 608" transform="translate(95.838 65.92)">
      <path id="Path_1447" data-name="Path 1447" d="M83.492,28.5l1.719-1.694a.786.786,0,0,0,0-1.129.775.775,0,0,0-1.154,0l-1.694,1.694a.785.785,0,0,0,0,1.129.725.725,0,0,0,1.129,0Z" transform="translate(-82.123 -25.42)" fill="#fab753"/>
    </g>
    <g id="Group_609" data-name="Group 609" transform="translate(99.834 61.937)">
      <path id="Path_1448" data-name="Path 1448" d="M84.226,25.5l-1.719,1.694a.864.864,0,0,0,0,1.154.8.8,0,0,0,1.154,0l1.719-1.719a.786.786,0,0,0,0-1.129A.815.815,0,0,0,84.226,25.5Z" transform="translate(-82.286 -25.257)" fill="#fab753"/>
    </g>
    <g id="Group_610" data-name="Group 610" transform="translate(91.835 69.917)">
      <path id="Path_1449" data-name="Path 1449" d="M85.048,25.822a.786.786,0,0,0-1.129,0L82.2,27.54a.8.8,0,0,0,.565,1.375.778.778,0,0,0,.565-.221l1.719-1.719A.815.815,0,0,0,85.048,25.822Z" transform="translate(-81.96 -25.582)" fill="#fab753"/>
    </g>
    <g id="Group_611" data-name="Group 611" transform="translate(103.327 64.539)">
      <path id="Path_1450" data-name="Path 1450" d="M83.822,28.475l1.719-1.719a.863.863,0,0,0,0-1.154.815.815,0,0,0-1.154,0l-1.719,1.719a.815.815,0,0,0,0,1.154.8.8,0,0,0,1.154,0Z" transform="translate(-82.428 -25.363)" fill="#fab753"/>
    </g>
    <g id="Group_612" data-name="Group 612" transform="translate(98.759 69.131)">
      <path id="Path_1451" data-name="Path 1451" d="M84.2,25.79l-1.719,1.694a.815.815,0,0,0,0,1.154.746.746,0,0,0,.565.246.711.711,0,0,0,.565-.246l1.743-1.719a.832.832,0,0,0,0-1.129A.815.815,0,0,0,84.2,25.79Z" transform="translate(-82.242 -25.55)" fill="#fab753"/>
    </g>
    <g id="Group_613" data-name="Group 613" transform="translate(94.192 73.679)">
      <path id="Path_1452" data-name="Path 1452" d="M84.014,25.993,82.3,27.688a.8.8,0,0,0,.565,1.375.778.778,0,0,0,.565-.221l1.719-1.719a.786.786,0,0,0,0-1.129A.747.747,0,0,0,84.014,25.993Z" transform="translate(-82.056 -25.736)" fill="#fab753"/>
    </g>
    <g id="Group_614" data-name="Group 614" transform="translate(108.09 65.92)">
      <path id="Path_1453" data-name="Path 1453" d="M84.58,25.677l-1.719,1.694a.785.785,0,0,0,0,1.129.817.817,0,0,0,.565.27.825.825,0,0,0,.589-.27l1.694-1.694a.786.786,0,0,0,0-1.129A.747.747,0,0,0,84.58,25.677Z" transform="translate(-82.622 -25.42)" fill="#fab753"/>
    </g>
    <g id="Group_615" data-name="Group 615" transform="translate(112.092 61.937)">
      <path id="Path_1454" data-name="Path 1454" d="M83.589,28.59a.8.8,0,0,0,.565-.246l1.719-1.719a.8.8,0,0,0-1.13-1.129l-1.719,1.694a.815.815,0,0,0,0,1.154A.846.846,0,0,0,83.589,28.59Z" transform="translate(-82.785 -25.257)" fill="#fab753"/>
    </g>
    <g id="Group_616" data-name="Group 616" transform="translate(104.106 69.917)">
      <path id="Path_1455" data-name="Path 1455" d="M84.4,25.822,82.681,27.54a.863.863,0,0,0,0,1.154.879.879,0,0,0,.589.221.865.865,0,0,0,.565-.221l1.694-1.719a.815.815,0,0,0,0-1.154A.786.786,0,0,0,84.4,25.822Z" transform="translate(-82.46 -25.582)" fill="#fab753"/>
    </g>
  </g>
</svg>
